<?xml version="1.0" encoding="utf-8"?>
<!-- Generator: Adobe Illustrator 16.0.3, SVG Export Plug-In . SVG Version: 6.00 Build 0)  -->
<!DOCTYPE svg PUBLIC "-//W3C//DTD SVG 1.1//EN" "http://www.w3.org/Graphics/SVG/1.1/DTD/svg11.dtd">
<svg version="1.1" xmlns="http://www.w3.org/2000/svg" xmlns:xlink="http://www.w3.org/1999/xlink" x="0px" y="0px"
	 width="595.28px" height="841.89px" viewBox="0 0 595.28 841.89" enable-background="new 0 0 595.28 841.89" xml:space="preserve">
<g id="Шар_1">
	<path d="M324,292h-0.043c-0.447-11.101-9.591-20-20.8-20C291.491,272,282,281.35,282,292.843c0,11.468,9.688,21.157,21.157,21.157
		c6.014,0,11.749-2.679,15.733-7.351l-1.521-1.298c-3.604,4.226-8.784,6.649-14.212,6.649c-9.995,0-18.473-8.132-19.097-18H324V292z
		 M284.043,292c0.453-9.998,8.84-18,19.114-18c10.105,0,18.354,8.002,18.8,18H284.043z"/>
	<path d="M280,292h-0.043c-0.447-11.101-9.591-20-20.8-20C247.491,272,238,281.35,238,292.843c0,11.468,9.688,21.157,21.157,21.157
		c6.014,0,11.749-2.679,15.733-7.351l-1.521-1.298c-3.604,4.226-8.784,6.649-14.212,6.649c-9.995,0-18.473-8.132-19.097-18H280V292z
		 M240.043,292c0.453-9.998,8.84-18,19.114-18c10.105,0,18.354,8.002,18.8,18H240.043z"/>
	<path d="M416,292h-0.043c-0.447-11.101-9.591-20-20.8-20C383.491,272,374,281.35,374,292.843c0,11.468,9.688,21.157,21.157,21.157
		c6.014,0,11.749-2.679,15.733-7.351l-1.521-1.298c-3.604,4.226-8.784,6.649-14.212,6.649c-9.995,0-18.473-8.132-19.097-18H416V292z
		 M376.043,292c0.453-9.998,8.84-18,19.114-18c10.105,0,18.354,8.002,18.8,18H376.043z"/>
	<path d="M347.157,272c-11.034,0-20.111,8.369-21.063,19H326v42h2v-31.347c3.413,7.213,10.812,12.347,19.157,12.347
		C358.65,314,368,304.509,368,292.843C368,281.35,358.65,272,347.157,272z M347.157,312C336.772,312,328,303.227,328,292.843
		c0-10.39,8.594-18.843,19.157-18.843c10.39,0,18.843,8.453,18.843,18.843C366,303.406,357.547,312,347.157,312z"/>
	<rect x="370" y="272" width="2" height="42"/>
	<polygon points="215,272 199,272 197,272 181,272 181,274 197,274 197,314 199,314 199,274 215,274 	"/>
	<path d="M226.642,303.228c5.542-2.707,9.358-8.244,9.358-14.638c0-9.148-7.442-16.59-16.591-16.59
		c-0.131,0-0.272,0.006-0.409,0.011V272h-2v0.158v32.689V314h2v-9c1.979,0,3.871-0.345,5.639-0.947l10.654,10.654l1.414-1.414
		L226.642,303.228z M219,303v-28.993c0.136-0.005,0.272-0.007,0.409-0.007c8.045,0,14.591,6.545,14.591,14.59
		C234,296.536,227.271,303,219,303z"/>
	<polygon fill="#2395BC" points="394,223.5 398,230 380,230 	"/>
	<polygon fill="#A6DEEF" points="394,223.5 402,212.5 419,213.5 404,236.5 394,230 	"/>
	<polygon fill="#36A3D2" points="433.984,203.5 516.984,166.5 472.984,231.5 471.792,232 433.984,205 	"/>
	<path d="M426,267.5"/>
	<polygon fill="#3DB7E2" points="419,213.5 449.417,230.75 427,268.5 404,236.5 	"/>
	<polygon fill="#A6DEEF" points="460.025,241.923 473.895,278 454.417,283.083 427,268.5 	"/>
	<polygon fill="#2395BC" points="441.768,286.393 441.768,276.34 433.102,271.739 	"/>
	<polygon fill="#36A2D1" points="444.906,278 473.895,278 528.906,324.572 464.906,287.572 471.906,304.572 	"/>
	<polygon fill="#2395BC" points="434,203.5 427,268.5 473,231.5 	"/>
	<path d="M324.094,684h-0.043c-0.447-11.101-9.591-20-20.8-20c-11.666,0-21.157,9.35-21.157,20.843
		c0,11.468,9.688,21.157,21.157,21.157c6.014,0,11.749-2.68,15.733-7.352l-1.521-1.297c-3.604,4.225-8.784,6.648-14.212,6.648
		c-9.995,0-18.473-8.132-19.097-18h39.939V684z M284.137,684c0.453-9.998,8.84-18,19.114-18c10.105,0,18.354,8.002,18.8,18H284.137z
		"/>
	<path d="M280.094,684h-0.043c-0.447-11.101-9.591-20-20.8-20c-11.666,0-21.157,9.35-21.157,20.843
		c0,11.468,9.688,21.157,21.157,21.157c6.014,0,11.749-2.68,15.733-7.352l-1.521-1.297c-3.604,4.225-8.784,6.648-14.212,6.648
		c-9.995,0-18.473-8.132-19.097-18h39.939V684z M240.137,684c0.453-9.998,8.84-18,19.114-18c10.105,0,18.354,8.002,18.8,18H240.137z
		"/>
	<path d="M416.094,684h-0.043c-0.447-11.101-9.591-20-20.8-20c-11.666,0-21.157,9.35-21.157,20.843
		c0,11.468,9.688,21.157,21.157,21.157c6.014,0,11.749-2.68,15.733-7.352l-1.521-1.297c-3.604,4.225-8.784,6.648-14.212,6.648
		c-9.995,0-18.473-8.132-19.097-18h39.939V684z M376.137,684c0.453-9.998,8.84-18,19.114-18c10.105,0,18.354,8.002,18.8,18H376.137z
		"/>
	<path d="M347.251,664c-11.034,0-20.111,8.369-21.063,19h-0.095v42h2v-31.347c3.413,7.214,10.812,12.347,19.157,12.347
		c11.493,0,20.843-9.491,20.843-21.157C368.094,673.35,358.744,664,347.251,664z M347.251,704c-10.385,0-19.157-8.773-19.157-19.157
		c0-10.39,8.594-18.843,19.157-18.843c10.39,0,18.843,8.453,18.843,18.843C366.094,695.406,357.641,704,347.251,704z"/>
	<rect x="370.094" y="664" width="2" height="42"/>
	<polygon points="215.094,664 199.094,664 197.094,664 181.094,664 181.094,666 197.094,666 197.094,706 199.094,706 199.094,666 
		215.094,666 	"/>
	<path d="M226.736,695.229c5.542-2.707,9.358-8.244,9.358-14.639c0-9.147-7.442-16.59-16.591-16.59
		c-0.131,0-0.272,0.006-0.409,0.011V664h-2v0.158v32.689V706h2v-9c1.979,0,3.871-0.345,5.639-0.947l10.654,10.654l1.414-1.414
		L226.736,695.229z M219.094,695v-28.992c0.136-0.006,0.272-0.008,0.409-0.008c8.045,0,14.591,6.545,14.591,14.59
		C234.094,688.535,227.365,695,219.094,695z"/>
	<polygon fill="#A6DEEF" points="394.094,615.5 402.094,604.5 419.094,605.5 404.094,628.5 394.094,622 	"/>
	<polygon fill="#36A3D2" points="434.078,595.5 517.078,558.5 473.078,623.5 	"/>
	<path d="M426.094,659.5"/>
	<polygon fill="#2395BC" points="434.094,595.5 427.094,660.5 473.094,623.5 	"/>
	<polygon fill="#2395BC" points="394.094,615.5 394.094,622 380.094,622 	"/>
	<polygon fill="#3DB7E2" points="419.094,605.5 432.209,612.994 427.094,660.5 404.094,628.5 	"/>
	<polygon fill="#A6DEEF" points="460.119,633.924 473.988,670 444.988,670 427.094,660.5 	"/>
	<polygon fill="#2395BC" points="441.861,678.393 441.861,668.34 433.195,663.739 	"/>
	<polygon fill="#36A2D1" points="445,670 473.988,670 529,716.572 465,679.572 472,696.572 	"/>
</g>
<g id="Шар_2">
</g>
</svg>
