<?xml version="1.0" encoding="utf-8"?>
<!-- Generator: Adobe Illustrator 16.0.3, SVG Export Plug-In . SVG Version: 6.00 Build 0)  -->
<!DOCTYPE svg PUBLIC "-//W3C//DTD SVG 1.1//EN" "http://www.w3.org/Graphics/SVG/1.1/DTD/svg11.dtd">
<svg version="1.1" id="Шар_1" xmlns="http://www.w3.org/2000/svg" xmlns:xlink="http://www.w3.org/1999/xlink" x="0px" y="0px"
	 width="13px" height="18px" viewBox="0 0 13 18" enable-background="new 0 0 13 18" xml:space="preserve">
<g>
	<path fill="#B2B3B3" d="M10.847,14.017H6.863C4.394,14.017,4,12.925,4,11.911C4,11.43,4.03,9.971,4.06,9h6.312
		c0.867,0,2.524-0.214,2.524-1.802C12.896,5.612,12.131,5,11.107,5H4.701C4.694,2.711,4.545,0,2.309,0
		C1.384,0,0.634,0.38,0.316,1.323c-0.415,1.24-0.305,2.691-0.299,3.982C0.019,5.549,0.02,5.796,0.021,6.042
		c0.002,0.846,0.02,1.696,0.024,2.545c0.001,0.914,0.003,1.829,0.003,2.743c0,5.119,4.652,6.587,5.545,6.587
		c0.892,0,4.332,0.083,4.964,0.083S13,17.833,13,16C13,14.166,11.716,14.017,10.847,14.017z"/>
</g>
</svg>
