<?xml version="1.0" encoding="utf-8"?>
<!-- Generator: Adobe Illustrator 16.0.3, SVG Export Plug-In . SVG Version: 6.00 Build 0)  -->
<!DOCTYPE svg PUBLIC "-//W3C//DTD SVG 1.1//EN" "http://www.w3.org/Graphics/SVG/1.1/DTD/svg11.dtd">
<svg version="1.1" id="Шар_1" xmlns="http://www.w3.org/2000/svg" xmlns:xlink="http://www.w3.org/1999/xlink" x="0px" y="0px"
	 width="14px" height="18px" viewBox="0 0 14 18" enable-background="new 0 0 14 18" xml:space="preserve">
<path fill="#B2B3B3" d="M10.205,8.38c1.641-0.768,2.764-2.215,2.764-3.896C12.969,2.007,10.558,0,7.588,0
	C7.549,0,4.038,0.009,4,0.01V0H0v18h2.83c0.042,0.001,5.146,0,5.189,0C11.32,18,14,15.769,14,13.016
	C14,10.906,12.425,9.108,10.205,8.38z M4,3.005C4.021,3.005,5.979,3,6,3c1.656,0,3,1.119,3,2.5S7.656,8,6,8
	C5.979,8,4.021,7.995,4,7.995V3.005z M7,15c-0.021,0-2.979-0.005-3-0.006v-4.988C4.021,10.005,6.979,10,7,10c1.656,0,3,1.119,3,2.5
	S8.656,15,7,15z"/>
</svg>
