<?xml version="1.0" encoding="utf-8"?>
<!-- Generator: Adobe Illustrator 16.0.3, SVG Export Plug-In . SVG Version: 6.00 Build 0)  -->
<!DOCTYPE svg PUBLIC "-//W3C//DTD SVG 1.1//EN" "http://www.w3.org/Graphics/SVG/1.1/DTD/svg11.dtd" [
	<!ENTITY ns_extend "http://ns.adobe.com/Extensibility/1.0/">
	<!ENTITY ns_ai "http://ns.adobe.com/AdobeIllustrator/10.0/">
	<!ENTITY ns_graphs "http://ns.adobe.com/Graphs/1.0/">
	<!ENTITY ns_vars "http://ns.adobe.com/Variables/1.0/">
	<!ENTITY ns_imrep "http://ns.adobe.com/ImageReplacement/1.0/">
	<!ENTITY ns_sfw "http://ns.adobe.com/SaveForWeb/1.0/">
	<!ENTITY ns_custom "http://ns.adobe.com/GenericCustomNamespace/1.0/">
	<!ENTITY ns_adobe_xpath "http://ns.adobe.com/XPath/1.0/">
]>
<svg version="1.1" id="Шар_1" xmlns:x="&ns_extend;" xmlns:i="&ns_ai;" xmlns:graph="&ns_graphs;"
	 xmlns="http://www.w3.org/2000/svg" xmlns:xlink="http://www.w3.org/1999/xlink" x="0px" y="0px" width="9px" height="26px"
	 viewBox="0 0 9 26" enable-background="new 0 0 9 26" xml:space="preserve">
<metadata>
	<sfw  xmlns="&ns_sfw;">
		<slices></slices>
		<sliceSourceBounds  width="9" height="26" x="0" y="-26" bottomLeftOrigin="true"></sliceSourceBounds>
	</sfw>
</metadata>
<path fill="#ACACAC" d="M8.854,8.146c-0.195-0.195-0.512-0.195-0.707,0L5,11.293V0.5C5,0.224,4.776,0,4.5,0S4,0.224,4,0.5v10.793
	L0.854,8.146c-0.195-0.195-0.512-0.195-0.707,0s-0.195,0.512,0,0.707l4,4C4.244,12.951,4.372,13,4.5,13s0.256-0.049,0.354-0.146l4-4
	C9.049,8.658,9.049,8.342,8.854,8.146z"/>
<path fill="#ACACAC" d="M0.146,17.854c0.195,0.195,0.512,0.195,0.707,0L4,14.707V25.5C4,25.776,4.224,26,4.5,26S5,25.776,5,25.5
	V14.707l3.146,3.146c0.195,0.195,0.512,0.195,0.707,0s0.195-0.512,0-0.707l-4-4C4.756,13.049,4.628,13,4.5,13
	s-0.256,0.049-0.354,0.146l-4,4C-0.049,17.342-0.049,17.658,0.146,17.854z"/>
</svg>
